{
  "accessors": [
    {
      "bufferView": 2,
      "componentType": 5126,
      "count": 11240,
      "max": [
        13.650496482849121,
        18.92228889465332,
        3.6644539833068848
      ],
      "min": [
        -1.6872475147247314,
        -18.286420822143555,
        -6.96493673324585
      ],
      "type": "VEC3"
    },
    {
      "bufferView": 2,
      "byteOffset": 134880,
      "componentType": 5126,
      "count": 11240,
      "max": [
        1.0,
        1.0,
        1.0
      ],
      "min": [
        -1.0,
        -1.0,
        -1.0
      ],
      "type": "VEC3"
    },
    {
      "bufferView": 3,
      "componentType": 5126,
      "count": 11240,
      "max": [
        0.9999977946281433,
        0.9999989867210388,
        1.0,
        1.0
      ],
      "min": [
        -0.9999862909317017,
        -1.0,
        -0.9999995827674866,
        -1.0
      ],
      "type": "VEC4"
    },
    {
      "bufferView": 1,
      "componentType": 5126,
      "count": 11240,
      "max": [
        0.9969632029533386,
        0.9994075894355774
      ],
      "min": [
        0.004146631807088852,
        0.0005923211574554443
      ],
      "type": "VEC2"
    },
    {
      "bufferView": 0,
      "componentType": 5125,
      "count": 25353,
      "type": "SCALAR"
    }
  ],
  "asset": {
    "extras": {
      "author": "armganes- (https://sketchfab.com/armganes-)",
      "license": "CC-BY-4.0 (http://creativecommons.org/licenses/by/4.0/)",
      "source": "https://sketchfab.com/3d-models/computer-sci-fi-912b8340c6984b65b6a5e48aae67a64e",
      "title": "Computer Sci-fi"
    },
    "generator": "Sketchfab-17.7.0",
    "version": "2.0"
  },
  "bufferViews": [
    {
      "buffer": 0,
      "byteLength": 101412,
      "name": "floatBufferViews",
      "target": 34963
    },
    {
      "buffer": 0,
      "byteLength": 89920,
      "byteOffset": 101412,
      "byteStride": 8,
      "name": "floatBufferViews",
      "target": 34962
    },
    {
      "buffer": 0,
      "byteLength": 269760,
      "byteOffset": 191332,
      "byteStride": 12,
      "name": "floatBufferViews",
      "target": 34962
    },
    {
      "buffer": 0,
      "byteLength": 179840,
      "byteOffset": 461092,
      "byteStride": 16,
      "name": "floatBufferViews",
      "target": 34962
    }
  ],
  "buffers": [
    {
      "byteLength": 640932,
      "uri": "scene.bin"
    }
  ],
  "extensionsUsed": [
    "KHR_materials_emissive_strength"
  ],
  "images": [
    {
      "uri": "textures/M_FrontOrdinateur_baseColor.png"
    },
    {
      "uri": "textures/M_FrontOrdinateur_metallicRoughness.png"
    },
    {
      "uri": "textures/M_FrontOrdinateur_emissive.png"
    },
    {
      "uri": "textures/M_FrontOrdinateur_normal.png"
    }
  ],
  "materials": [
    {
      "doubleSided": true,
      "emissiveFactor": [
        1.0,
        1.0,
        1.0
      ],
      "emissiveTexture": {
        "index": 2
      },
      "extensions": {
        "KHR_materials_emissive_strength": {
          "emissiveStrength": 5.0
        }
      },
      "name": "M_FrontOrdinateur",
      "normalTexture": {
        "index": 3
      },
      "pbrMetallicRoughness": {
        "baseColorTexture": {
          "index": 0
        },
        "metallicRoughnessTexture": {
          "index": 1
        }
      }
    }
  ],
  "meshes": [
    {
      "name": "FRONT_Ordinateur_M_FrontOrdinateur_0",
      "primitives": [
        {
          "attributes": {
            "NORMAL": 1,
            "POSITION": 0,
            "TANGENT": 2,
            "TEXCOORD_0": 3
          },
          "indices": 4,
          "material": 0,
          "mode": 4
        }
      ]
    }
  ],
  "nodes": [
    {
      "children": [
        1
      ],
      "matrix": [
        1.0,
        0.0,
        0.0,
        0.0,
        0.0,
        2.220446049250313e-16,
        -1.0,
        0.0,
        0.0,
        1.0,
        2.220446049250313e-16,
        0.0,
        0.0,
        0.0,
        0.0,
        1.0
      ],
      "name": "Sketchfab_model"
    },
    {
      "children": [
        2
      ],
      "matrix": [
        0.009999999776482582,
        0.0,
        0.0,
        0.0,
        0.0,
        0.0,
        0.009999999776482582,
        0.0,
        0.0,
        -0.009999999776482582,
        0.0,
        0.0,
        0.0,
        0.0,
        0.0,
        1.0
      ],
      "name": "9cff9760195542f6b49fc1e49a849478.fbx"
    },
    {
      "children": [
        3
      ],
      "name": "RootNode"
    },
    {
      "children": [
        4
      ],
      "matrix": [
        24.743356068947442,
        -4.171418549158256e-06,
        42.856764543917976,
        0.0,
        42.856764543917876,
        -3.4889675671867764e-06,
        -24.743356068947723,
        0.0,
        5.10724354474829e-06,
        49.48672485351532,
        1.8680714059993078e-06,
        0.0,
        40195.59375,
        -54.28005599975586,
        -1275.504638671875,
        1.0
      ],
      "name": "FRONT_Ordinateur"
    },
    {
      "mesh": 0,
      "name": "FRONT_Ordinateur_M_FrontOrdinateur_0"
    }
  ],
  "samplers": [
    {
      "magFilter": 9729,
      "minFilter": 9987,
      "wrapS": 10497,
      "wrapT": 10497
    }
  ],
  "scene": 0,
  "scenes": [
    {
      "name": "Sketchfab_Scene",
      "nodes": [
        0
      ]
    }
  ],
  "textures": [
    {
      "sampler": 0,
      "source": 0
    },
    {
      "sampler": 0,
      "source": 1
    },
    {
      "sampler": 0,
      "source": 2
    },
    {
      "sampler": 0,
      "source": 3
    }
  ]
}
